# xmcd
#
# Track frame offsets: 
#        150
#        13650
#        28017
#        43682
#        56057
#        66082
#        80432
#        95580
#        111367
#        125640
#
# Disc length: 1861 seconds
#
# Revision: 5
# Processed by: cddbd v1.5.2PL0 Copyright (c) Steve Scherf et al.
# Submitted via: ExactAudioCopyFreeDBPlugin 1.0
#
DISCID=8807430a
DTITLE=Sharon Anderson - The Bottom Line
DYEAR=1991
DGENRE=country
TTITLE0=Unbelievable Love
TTITLE1=Go For Broke
TTITLE2=The Bottom Line
TTITLE3=Say When
TTITLE4=Just Like My Old Man
TTITLE5=You Shake Me Up
TTITLE6=The Wheel Of Love
TTITLE7=Meet In The Middle
TTITLE8=Ribbons Of Steel
TTITLE9=Pony
EXTD=more info - MillenniumMusicProjectFormat - SYNTAX=SongTitle{Subtit
EXTD=le}[miscInfo](Lyricist;Composer;Date,Artist,Location,State,Countr
EXTD=y)
EXTT0=
EXTT1=
EXTT2=
EXTT3=
EXTT4=
EXTT5=
EXTT6=
EXTT7=
EXTT8=
EXTT9=
PLAYORDER=
